<?xml version="1.0" encoding="UTF-8"?>
<svg xmlns="http://www.w3.org/2000/svg" xmlns:xlink="http://www.w3.org/1999/xlink" viewBox="0 0 48 48" width="48px" height="48px">
<g id="surface165736506">
<path style=" stroke:none;fill-rule:nonzero;fill:rgb(8.627451%,47.058824%,78.039217%);fill-opacity:1;" d="M 41.601562 3.839844 L 6.402344 3.839844 C 4.988281 3.839844 3.839844 4.988281 3.839844 6.402344 L 3.839844 41.597656 C 3.839844 43.011719 4.988281 44.160156 6.402344 44.160156 L 41.597656 44.160156 C 43.011719 44.160156 44.160156 43.011719 44.160156 41.601562 L 44.160156 6.402344 C 44.160156 4.988281 43.011719 3.839844 41.601562 3.839844 Z M 25.921875 34.734375 C 25.921875 38.574219 23.671875 40.320312 20.386719 40.320312 C 17.414062 40.320312 15.273438 38.328125 14.398438 36.480469 L 17.417969 34.652344 C 18 35.683594 18.886719 36.480469 20.160156 36.480469 C 21.378906 36.480469 22.078125 36.003906 22.078125 34.152344 L 22.078125 22.078125 L 25.921875 22.078125 Z M 34.25 40.320312 C 30.847656 40.320312 28.917969 38.605469 27.839844 36.480469 L 30.71875 34.558594 C 31.503906 35.84375 32.359375 37.070312 34.167969 37.070312 C 35.683594 37.070312 36.480469 36.3125 36.480469 35.261719 C 36.480469 34.007812 35.65625 33.5625 33.984375 32.832031 L 33.070312 32.4375 C 30.425781 31.3125 28.667969 29.902344 28.667969 26.917969 C 28.667969 24.171875 30.765625 22.078125 34.035156 22.078125 C 36.363281 22.078125 38.035156 22.890625 39.242188 25.011719 L 36.394531 26.847656 C 35.765625 25.71875 35.089844 25.273438 34.035156 25.273438 C 32.960938 25.273438 32.285156 25.957031 32.285156 26.847656 C 32.285156 27.945312 32.960938 28.386719 34.535156 29.070312 L 35.449219 29.464844 C 38.566406 30.796875 40.320312 32.15625 40.320312 35.214844 C 40.320312 38.511719 37.730469 40.320312 34.25 40.320312 Z M 34.25 40.320312 "/>
</g>
</svg>
